/* XPM */
static char *de89815edeb44917cda73448cd7b87fdCw34TApSgmA2DPaJ[] = {
/* columns rows colors chars-per-pixel */
"50 76 253 2 ",
"   c None",
".  c #E0673E",
"X  c #DE724D",
"o  c #25A6B5",
"O  c #36A8B5",
"+  c #799B9B",
"@  c #7A9C9B",
"#  c #7A9C9C",
"$  c #7B9D9C",
"%  c #7C9E9C",
"&  c #7C9E9D",
"*  c #7D9F9D",
"=  c #7EA09D",
"-  c #7EA09E",
";  c #7FA09E",
":  c #7FA19E",
">  c #42ADB9",
",  c #44AEB9",
"<  c #4BB0BA",
"1  c #54B3BC",
"2  c #59B5BD",
"3  c #5BB5BD",
"4  c #5EB7BE",
"5  c #61B4B6",
"6  c #64B5B7",
"7  c #60B7BE",
"8  c #61B8BE",
"9  c #62B8BF",
"0  c #63B9BF",
"q  c #64B9BF",
"w  c #66BAC0",
"e  c #68BBC0",
"r  c #69BBC0",
"t  c #69BCC0",
"y  c #6ABCC0",
"u  c #6ABCC1",
"i  c #6BBCC1",
"p  c #6EBDC1",
"a  c #6FBEC2",
"s  c #70BFC2",
"d  c #71BFC2",
"f  c #72BFC2",
"g  c #72BFC3",
"h  c #72C0C3",
"j  c #73C0C3",
"k  c #74C0C3",
"l  c #74C1C3",
"z  c #75C1C3",
"x  c #76C1C3",
"c  c #76C1C4",
"v  c #76C2C4",
"b  c #77C2C4",
"n  c #79C3C4",
"m  c #79C3C5",
"M  c #7AC3C5",
"N  c #7AC4C5",
"B  c #7BC4C5",
"V  c #7CC4C5",
"C  c #7CC5C5",
"Z  c #7DC5C6",
"A  c #7EC5C6",
"S  c #7EC6C6",
"D  c #7FC6C6",
"F  c #80A19E",
"G  c #80A29E",
"H  c #81A39F",
"J  c #82A39F",
"K  c #82A49F",
"L  c #82A4A0",
"P  c #83A5A0",
"I  c #83A6A1",
"U  c #84A6A0",
"Y  c #84A6A1",
"T  c #85A7A1",
"R  c #86A8A1",
"E  c #86A8A2",
"W  c #87A8A2",
"Q  c #87A9A2",
"!  c #87AAA2",
"~  c #88AAA2",
"^  c #88AAA3",
"/  c #88ABA3",
"(  c #89ABA3",
")  c #8AACA3",
"_  c #8AACA4",
"`  c #8BADA4",
"'  c #8BAEA4",
"]  c #8CAEA4",
"[  c #8CAEA5",
"{  c #8DAFA5",
"}  c #8DB0A5",
"|  c #8EB0A5",
" . c #8EB0A6",
".. c #8FB1A6",
"X. c #8FB2A6",
"o. c #83B1AF",
"O. c #90B2A6",
"+. c #90B2A7",
"@. c #91B3A7",
"#. c #92B4A7",
"$. c #92B4A8",
"%. c #92B5A8",
"&. c #93B5A8",
"*. c #93B6A8",
"=. c #94B6A8",
"-. c #94B6A9",
";. c #94B7A9",
":. c #95B7A9",
">. c #95B8A9",
",. c #96B9AA",
"<. c #97B9AA",
"1. c #98BAAB",
"2. c #98BBAB",
"3. c #99BBAB",
"4. c #9ABCAC",
"5. c #9ABDAC",
"6. c #9BBDAC",
"7. c #9CBEAD",
"8. c #9CBFAD",
"9. c #9DBFAD",
"0. c #9DBFAE",
"q. c #91BAB1",
"w. c #D2A485",
"e. c #D1A586",
"r. c #D0AA8B",
"t. c #CBB899",
"y. c #9DC0AE",
"u. c #9EC1AE",
"i. c #9FC1AF",
"p. c #9FC2AF",
"a. c #80C0B8",
"s. c #84C2B9",
"d. c #85C2B9",
"f. c #8CC5B9",
"g. c #8DC6BA",
"h. c #8BC0BD",
"j. c #8EC3BE",
"k. c #90C7BA",
"l. c #93C9BA",
"z. c #94C9BA",
"x. c #95C9BA",
"c. c #96CABA",
"v. c #97CBBA",
"b. c #98CBBA",
"n. c #98CBBB",
"m. c #9ACCBB",
"M. c #9BCCBB",
"N. c #9BCDBB",
"B. c #9CCDBB",
"V. c #9ECEBB",
"C. c #9FCFBB",
"Z. c #A0C2AF",
"A. c #A0C3AF",
"S. c #A1C3B0",
"D. c #A1C4B0",
"F. c #A3C6B1",
"G. c #A4C7B1",
"H. c #A4C7B2",
"J. c #A5C8B2",
"K. c #A6C9B3",
"L. c #A8CBB4",
"P. c #ABCEB5",
"I. c #ABCEB6",
"U. c #ACCFB6",
"Y. c #ACD0B6",
"T. c #ACD0B7",
"R. c #A1D0BB",
"E. c #A2D0BC",
"W. c #A3D1BC",
"Q. c #A2D1BE",
"!. c #A4D1BC",
"~. c #A5D2BC",
"^. c #A6D2BC",
"/. c #A6D3BC",
"(. c #A7D3BC",
"). c #AFD2B8",
"_. c #AED5BB",
"`. c #A8D3BC",
"'. c #A8D4BC",
"]. c #AAD4BC",
"[. c #ABD5BC",
"{. c #ACD5BD",
"}. c #ACD6BD",
"|. c #ADD6BD",
" X c #AFD7BD",
".X c #BDD5B6",
"XX c #B0D3B9",
"oX c #B0D4B9",
"OX c #B1D4B9",
"+X c #B1D5B9",
"@X c #B4D8BB",
"#X c #B5D8BB",
"$X c #B0D8BD",
"%X c #B1D8BD",
"&X c #B1D9BD",
"*X c #B2D9BD",
"=X c #B3DABD",
"-X c #B4DABD",
";X c #B7DBBD",
":X c #B5DBBE",
">X c #B6DBBE",
",X c #B7DCBE",
"<X c #B6DCBF",
"1X c #B8DCBE",
"2X c #B9DDBE",
"3X c #C5C4A5",
"4X c #80C7C6",
"5X c #81C7C7",
"6X c #82C8C7",
"7X c #83C8C7",
"8X c #83C8C8",
"9X c #84C9C8",
"0X c #85C9C8",
"qX c #85CAC8",
"wX c #86CAC8",
"eX c #86CAC9",
"rX c #87CAC9",
"tX c #87CBC9",
"yX c #88CBC9",
"uX c #89CBC9",
"iX c #89CCC9",
"pX c #89CCCA",
"aX c #8ACCCA",
"sX c #8BCCCA",
"dX c #8BCDCA",
"fX c #8CCDCA",
"gX c #8CCECA",
"hX c #8DCECB",
"jX c #8ECECB",
"kX c #8ECFCB",
"lX c #8FCFCB",
"zX c #90CFCB",
"xX c #92CECA",
"cX c #90CFCC",
"vX c #9FD3C5",
"bX c #93D0CB",
"nX c #90D0CC",
"mX c #91D0CC",
"MX c #92D1CC",
"NX c #93D1CD",
"BX c #94D2CD",
"VX c #95D2CD",
"CX c #96D3CC",
"ZX c #99D2C8",
"AX c #9ED5CA",
"SX c #A6D5C2",
"DX c #ABD9C4",
"FX c #A8D8C6",
"GX c #ADD9C4",
"HX c #A0D5C9",
"JX c #A1D6C8",
"KX c #A2D6C8",
"LX c #B3DBC1",
/* pixels */
"                                              +                                                     ",
"                                            + {                                                     ",
"                                            S.=                                       BXBX          ",
"                                            _ Q                                       qXqX          ",
"                                          H A.+                       g D           BXyXD           ",
"                                          Q Q                       5Xu BX          BX9 3           ",
"            H.+                           Q (                       D p qX          n z D           ",
"          H } %                         + + +                       cXc dX          qXkXBX          ",
"          L @X{                         + +       +                 qXlXBX          D 1             ",
"        % } H %                       + + +       + +               BXlXBXBX        nXc             ",
"        % +._ (                       + +       + + +                 yXBXBXBX    nXdXkX            ",
"        $ Q Q +                       + +       + Q +                 BXBXBXBXBXqXkXh B             ",
"        &.U.Q +                       + + (   + Q +                 BXBXBXBXBXBXqXn 5X              ",
"        = A.Q + +                     + + 1.1.7.,.+             BXBXBXnXBXBXBXqXn                   ",
"          $ + + +   U ( +             + + % { ,.{ +           BXBXBX7XdXnXBX                        ",
"    +     ( = + + + P + +               + % :.} +           BXkXnXc dX                              ",
"    +.#.7.+ ( + + &.1.S.%               + + ( $ + yXn       BXkXr dXBX                            BX",
"    + +.1.F.+ + + P &.&.          P + +   + + +.H nX> qXkXBXBXg r yX                            BXz ",
"      +.A.H U @ + y.L.+           L F._ = + + ) Q nXr dXn 5XBX7Xz 5X                            dX6X",
"        + $ = + + { 1.+           + 7.( 7.+ + Q =   BXu yXBXBXBX< qX            qXqX            < q ",
"          F.+ + + + +               K :.( $ + + +     BXdXnXBXBX5XcXBX        nX9 h           nXn 8X",
"            U + + { +               Q :.J.U + + +       z 5XBXkXqXw BX        D 6X7X          BXkX  ",
"            H + + +                   U } H + + +         BXBXBXBXkXBX        BXg dX          nXqX  ",
"            + + + +                     } 7.+ + +   BX    BXBXyXyXkXBX        BX7X            dXdX  ",
"            + + + +                     ) +.+ + +   BX      BXkXn g BX        BXBX            5XqX  ",
"            + + + +                       A.+ + +   BXxX+   BXqXc p           BXBX            4 7   ",
"            + + +                         K H + +   BXo.{   BXnXg BX          BX            BXdXdX  ",
"            + + +     + +                   U + +   j.} F.  BXyXq CX          BX            BXdX    ",
"            + + U U $ S.+                   + + { + % _ S.h.BX5Xw BX  nXBX  BXBX          BXz nX    ",
"            + + :.Q y.= =                   + + + :.K.:.q.BXBXkXh lXBXc dXBXBXBXBX    BXBXBXBX      ",
"            + + + % H.K   [.                + % Q T.#.U bXBXBXBXBXqX, dXnXkXBXBXBXBXBXBXBX          ",
"  + + } H + + + Q P 7.  2XV.d.              + + :.Q       BXBXBXBXBX5XD D yXdXnXcXBXBX              ",
"$ Q y.&.% @ + + $ % _     V.d.~.            + + ( _       BXBXBXBXBXnX5XD D lXBX6X                  ",
"  + 7.&.2.) { ( + U =     *XR.V.Q.V.      + + + _         BXBXBXBXBXD h h 7X                        ",
"    + ( U S.( + + + y.7.    2X}.!.@Xb.*X  + + + @     n yXcXBXBXBXcXD nX                            ",
"        $ 7.P y.H + + + +     2X<XV.5 *X@XP + +       3 r D nXlXn cXcX                              ",
"              + + + +.7.=.+ +     2X~.l.}.).$ +       dXg D nX5Xp lX                                ",
"                    H Q T.Q = + @ % F.2X*X[.7.+       BXkXyXBXn h BX    BXBX                        ",
"                        + { P + + + + F.2X2X@X+         nXn BXw h qX  BX8XbX                        ",
"                            Q H + + + $ OX2X2XU +   ~.~.  dXBXcXp BXnX5XD                           ",
"                              % Q + + + } 2X2X,.( @X`.x.  BXBXlXqXdXqXcX6X                          ",
"                                $ } Q $ + OX2X2X}.*X~.2X  BXBXBXBXc 8XD                             ",
"                                  H.{ _ + y.2X2X[.v.O     BXBXBXnXo B                               ",
"                                  + P.P + ,.2X2X(.[.~.    BXdXBXkX6X                                ",
"                                    1.+.+ y.2X@X'.x.@X    B B q BXKX                                ",
"                                    { ( + H.2X2X}.6       h D KX<X!.b.*X2X                          ",
"                                    Q + A.OX2X2X}.*X    8Xc KX2XV.}.m.*XV.                          ",
"                                    + + { T.2X2XE.V.    kXZXLX XE.x.a.2X                            ",
"                          + { + $ + + + + + { ;X2X2X  BXqXLX2Xc.m.(.                                ",
"                          2.) F.A.1.+ + + + + H.2X`.  BXAX2X}.@X[.                                  ",
"                            K 7.:.L } % + + + ,.2X2XBXBXDX2X~.SX                                    ",
"                              + Q +.:.( + + + 1.2X2XGXJXLX2XQ.BX                                    ",
"                                  + &.@X{ $ + &.2X2X2X2X2X2XDXBXBXBXkXh qXqX6X                      ",
"                                        Q 2.+ = 2X2X2X2X2X*XDXBXBXyXnXyX                            ",
"                                          + ( + U.2X2X2X}.m.DXBX                                    ",
"                                            + + 7.2X2X2X@X2X2X                                      ",
"                                              + 3.2X2X}.m.2X2X                                      ",
"                                              $ J.2X2X2X Xl.2X                                      ",
"                                                OX2X2X2X*X2X2X                                      ",
"                                                2X2X2X2X}.*Xd.                                      ",
"                                                2X2X2X2X}.@XLX                                      ",
"                                                2X2X2X2X2Xb.2X                                      ",
"                                                2X2X2X2X2XR.2X                                      ",
"                                              2X.X3Xt.w.w.w.r.                                      ",
"                                            . X . . . . . . . . .                                   ",
"                                        . . . . . . . . . . . . . .                                 ",
"                                      . . . . . . . . . . . . . . . .                               ",
"                                    . . . . . . . . . . . . . . . . . .                             ",
"                                    . . . . . . . . . . . . . . . . . . .                           ",
"                                    . . . . . . . . . . . . . . . . . . . .                         ",
"                                    . . . . . . . . . . . . . . . . . . . .                         ",
"                                    . . . . . . . . . . . . . . . . . . . . .                       ",
"                                      . . . . . . . . . . . . . . . . . . . .                       ",
"                                        . . . . . . . . . . . . . . . . . . .                       ",
"                                          . . . . . . . . . . . . . . . . .                         ",
"                                                  . . . . . . . . . . .                             "
};
